{
.appVersion = "965";
copyright = "Copyright 2017 Google Inc. All Rights Reserved.";
customParameters = (
{
name = glyphOrder;
value = (
.notdef,
NULL,
CR,
space,
u10920,
u10921,
u10922,
u10923,
u10924,
u10925,
u10926,
u10927,
u10928,
u10929,
u1092A,
u1092B,
u1092C,
u1092D,
u1092E,
u1092F,
u10930,
u10931,
u10932,
u10933,
u10934,
u10935,
u10936,
u10937,
u10938,
u10939,
u1093F,
uni00A0
);
},
{
name = description;
value = "Designed by Monotype design team.";
},
{
name = license;
value = "This Font Software is licensed under the SIL Open Font License, Version 1.1. This Font Software is distributed on an \"AS IS\" BASIS, WITHOUT WARRANTIES OR CONDITIONS OF ANY KIND, either express or implied. See the SIL Open Font License for the specific language, permissions and limitations governing your use of this Font Software.";
},
{
name = licenseURL;
value = "http://scripts.sil.org/OFL";
},
{
name = vendorID;
value = GOOG;
},
{
name = unicodeRanges;
value = (
0,
1,
57,
121
);
},
{
name = trademark;
value = "Noto is a trademark of Google Inc.";
},
{
name = "Has WWS Names";
value = 1;
},
{
name = versionString;
value = "Version 1.900";
},
{
name = fsType;
value = (
);
},
{
name = codePageRanges;
value = (
"1252"
);
}
);
date = "2017-01-26 16:56:13 +0000";
designer = "Monotype Design Team";
designerURL = "http://www.monotype.com/studio";
disablesAutomaticAlignment = 1;
disablesNiceNames = 1;
familyName = "Noto Sans Lydian";
fontMaster = (
{
alignmentZones = (
"{1069, 15}",
"{714, 15}",
"{536, 15}",
"{0, -15}",
"{-293, -15}"
);
ascender = 1069;
capHeight = 714;
customParameters = (
{
name = typoAscender;
value = 1069;
},
{
name = typoDescender;
value = -293;
},
{
name = typoLineGap;
value = 0;
},
{
name = winAscent;
value = 1069;
},
{
name = winDescent;
value = 293;
},
{
name = hheaAscender;
value = 1069;
},
{
name = hheaDescender;
value = -293;
},
{
name = hheaLineGap;
value = 0;
},
{
name = underlinePosition;
value = -100;
},
{
name = underlineThickness;
value = 50;
},
{

glyphs = (
{
glyphname = .notdef;
lastChange = "2017-01-26 17:39:16 +0000";
layers = (
{
layerId = UUID0;
paths = (
{
closed = 1;
nodes = (
"450 0 LINE",
"450 714 LINE",
"50 714 LINE",
"50 0 LINE"
);
},
{
closed = 1;
nodes = (
"98 666 LINE",
"402 666 LINE",
"402 48 LINE",
"98 48 LINE"
);
}
);
width = 500;
}
);
},
{
glyphname = u10920;
lastChange = "2017-01-26 17:39:16 +0000";
layers = (
{
layerId = UUID0;
paths = (
{
closed = 1;
nodes = (
"101 0 LINE",
"125 63 LINE",
"453 272 LINE",
"555 0 LINE",
"648 0 LINE",
"370 717 LINE",
"289 717 LINE",
"10 0 LINE"
);
},
{
closed = 1;
nodes = (
"297 517 LINE SMOOTH",
"306 541 OFFCURVE",
"318 583 OFFCURVE",
"328 624 CURVE",
"335 599 OFFCURVE",
"356 533 OFFCURVE",
"362 517 CURVE SMOOTH",
"425 348 LINE",
"171 187 LINE"
);
}
);
width = 658;
}
);
unicode = 10920;
},
{
glyphname = u10921;
lastChange = "2017-01-26 17:39:16 +0000";
layers = (
{
layerId = UUID0;
paths = (
{
closed = 1;
nodes = (
"553 0 LINE",
"553 714 LINE",
"349 714 LINE SMOOTH",
"171 714 OFFCURVE",
"78 667 OFFCURVE",
"78 537 CURVE SMOOTH",
"78 453 OFFCURVE",
"126 395 OFFCURVE",
"214 379 CURVE",
"214 374 LINE",
"124 359 OFFCURVE",
"54 314 OFFCURVE",
"54 203 CURVE SMOOTH",
"54 73 OFFCURVE",
"149 0 OFFCURVE",
"302 0 CURVE SMOOTH"
);
},
{
closed = 1;
nodes = (
"193 77 OFFCURVE",
"150 130 OFFCURVE",
"150 210 CURVE SMOOTH",
"150 285 OFFCURVE",
"194 334 OFFCURVE",
"326 334 CURVE SMOOTH",
"463 334 LINE",
"463 77 LINE",
"319 77 LINE SMOOTH"
);
},
{
closed = 1;
nodes = (
"209 411 OFFCURVE",
"171 450 OFFCURVE",
"171 527 CURVE SMOOTH",
"171 605 OFFCURVE",
"224 637 OFFCURVE",
"345 637 CURVE SMOOTH",
"463 637 LINE",
"463 411 LINE",
"331 411 LINE SMOOTH"
);
}
);
width = 650;
}
);
unicode = 10921;
},
{
glyphname = u10922;
lastChange = "2017-01-26 17:39:16 +0000";
layers = (
{
layerId = UUID0;
paths = (
{
closed = 1;
nodes = (
"462 -10 OFFCURVE",
"571 133 OFFCURVE",
"571 358 CURVE SMOOTH",
"571 574 OFFCURVE",
"449 724 OFFCURVE",
"228 724 CURVE SMOOTH",
"155 724 OFFCURVE",
"85 709 OFFCURVE",
"31 682 CURVE",
"67 606 LINE",
"111 626 OFFCURVE",
"165 645 OFFCURVE",
"229 645 CURVE SMOOTH",
"382 645 OFFCURVE",
"476 536 OFFCURVE",
"476 357 CURVE SMOOTH",
"476 180 OFFCURVE",
"394 69 OFFCURVE",
"230 69 CURVE SMOOTH",
"168 69 OFFCURVE",
"113 81 OFFCURVE",
"59 97 CURVE",
"59 19 LINE",
"112 -1 OFFCURVE",
"164 -10 OFFCURVE",
"243 -10 CURVE SMOOTH"
);
}
);
width = 632;
}
);
unicode = 10922;
},
{
glyphname = u10923;
lastChange = "2017-01-26 17:39:16 +0000";
layers = (
{
layerId = UUID0;
paths = (
{
closed = 1;
nodes = (
"359 282 LINE",
"359 0 LINE",
"449 0 LINE",
"449 714 LINE",
"359 714 LINE",
"359 398 LINE",
"29 44 LINE",
"87 -10 LINE"
);
}
);
width = 546;
}
);
unicode = 10923;
},
{
glyphname = u10924;
lastChange = "2017-01-26 17:39:16 +0000";
layers = (
{
layerId = UUID0;
paths = (
{
closed = 1;
nodes = (
"480 0 LINE",
"480 714 LINE",
"391 714 LINE",
"391 379 LINE",
"144 530 LINE",
"103 460 LINE",
"391 284 LINE",
"391 95 LINE",
"70 291 LINE",
"29 221 LINE",
"391 0 LINE"
);
}
);
width = 578;
}
);
unicode = 10924;
},
{
glyphname = u10925;
lastChange = "2017-01-26 17:39:16 +0000";
layers = (
{
layerId = UUID0;
paths = (
{
closed = 1;
nodes = (
"480 0 LINE",
"480 714 LINE",
"391 714 LINE",
"29 493 LINE",
"70 423 LINE",
"391 619 LINE",
"391 430 LINE",
"103 254 LINE",
"144 184 LINE",
"391 335 LINE",
"391 0 LINE"
);
}
);
width = 578;
}
);
unicode = 10925;
},
{
glyphname = u10926;
lastChange = "2017-01-26 17:39:16 +0000";
layers = (
{
layerId = UUID0;
paths = (
{
closed = 1;
nodes = (
"212 0 LINE",
"212 714 LINE",
"122 714 LINE",
"122 0 LINE"
);
}
);
width = 334;
}
);
unicode = 10926;
},
{
glyphname = u10927;
lastChange = "2017-01-26 17:39:16 +0000";
layers = (
{
layerId = UUID0;
paths = (
{
closed = 1;
nodes = (
"535 0 LINE",
"535 714 LINE",
"413 714 LINE SMOOTH",
"198 714 OFFCURVE",
"61 593 OFFCURVE",
"61 364 CURVE SMOOTH",
"61 123 OFFCURVE",
"199 0 OFFCURVE",
"434 0 CURVE SMOOTH"
);
},
{
closed = 1;
nodes = (
"248 77 OFFCURVE",
"156 173 OFFCURVE",
"156 361 CURVE SMOOTH",
"156 551 OFFCURVE",
"254 637 OFFCURVE",
"426 637 CURVE SMOOTH",
"445 637 LINE",
"445 77 LINE",
"441 77 LINE SMOOTH"
);
}
);
width = 633;
}
);
unicode = 10927;
},
{
glyphname = u10928;
lastChange = "2017-01-26 17:39:16 +0000";
layers = (
{
layerId = UUID0;
paths = (
{
closed = 1;
nodes = (
"422 0 LINE",
"422 714 LINE",
"333 714 LINE",
"333 441 LINE",
"78 651 LINE",
"29 586 LINE",
"298 366 LINE",
"29 146 LINE",
"78 81 LINE",
"333 290 LINE",
"333 0 LINE"
);
}
);
width = 520;
}
);
unicode = 10928;
},
{
glyphname = u10929;
lastChange = "2017-01-26 17:39:16 +0000";
layers = (
{
layerId = UUID0;
paths = (
{
closed = 1;
nodes = (
"480 0 LINE",
"480 714 LINE",
"391 714 LINE",
"29 493 LINE",
"70 423 LINE",
"391 619 LINE",
"391 0 LINE"
);
}
);
width = 578;
}
);
unicode = 10929;
},
{
glyphname = u1092A;
lastChange = "2017-01-26 17:39:16 +0000";
layers = (
{
layerId = UUID0;
paths = (
{
closed = 1;
nodes = (
"652 0 LINE",
"652 714 LINE",
"563 714 LINE",
"395 498 LINE",
"263 669 LINE",
"199 669 LINE",
"29 452 LINE",
"91 400 LINE",
"229 577 LINE",
"354 419 LINE",
"436 419 LINE",
"563 582 LINE",
"563 0 LINE"
);
}
);
width = 750;
}
);
unicode = 1092A;
},
{
glyphname = u1092B;
lastChange = "2017-01-26 17:39:16 +0000";
layers = (
{
layerId = UUID0;
paths = (
{
closed = 1;
nodes = (
"581 0 LINE",
"581 714 LINE",
"491 714 LINE",
"281 496 LINE",
"92 724 LINE",
"29 669 LINE",
"246 413 LINE",
"247 414 LINE",
"248 413 LINE",
"311 413 LINE",
"491 600 LINE",
"491 0 LINE"
);
}
);
width = 678;
}
);
unicode = 1092B;
},
{
glyphname = u1092C;
lastChange = "2017-01-26 17:39:16 +0000";
layers = (
{
layerId = UUID0;
paths = (
{
closed = 1;
nodes = (
"541 95 OFFCURVE",
"646 204 OFFCURVE",
"646 366 CURVE SMOOTH",
"646 530 OFFCURVE",
"540 637 OFFCURVE",
"354 637 CURVE SMOOTH",
"160 637 OFFCURVE",
"61 520 OFFCURVE",
"61 367 CURVE SMOOTH",
"61 214 OFFCURVE",
"159 95 OFFCURVE",
"353 95 CURVE SMOOTH"
);
},
{
closed = 1;
nodes = (
"212 174 OFFCURVE",
"156 254 OFFCURVE",
"156 366 CURVE SMOOTH",
"156 480 OFFCURVE",
"213 558 OFFCURVE",
"354 558 CURVE SMOOTH",
"494 558 OFFCURVE",
"551 480 OFFCURVE",
"551 366 CURVE SMOOTH",
"551 253 OFFCURVE",
"493 174 OFFCURVE",
"353 174 CURVE SMOOTH"
);
}
);
width = 707;
}
);
unicode = 1092C;
},
{
glyphname = u1092D;
lastChange = "2017-01-26 17:39:16 +0000";
layers = (
{
layerId = UUID0;
paths = (
{
closed = 1;
nodes = (
"520 0 LINE",
"520 714 LINE",
"331 714 LINE SMOOTH",
"144 714 OFFCURVE",
"61 632 OFFCURVE",
"61 499 CURVE SMOOTH",
"61 381 OFFCURVE",
"134 278 OFFCURVE",
"348 278 CURVE SMOOTH",
"430 278 LINE",
"430 0 LINE"
);
},
{
closed = 1;
nodes = (
"222 355 OFFCURVE",
"156 395 OFFCURVE",
"156 500 CURVE SMOOTH",
"156 592 OFFCURVE",
"213 637 OFFCURVE",
"339 637 CURVE SMOOTH",
"430 637 LINE",
"430 355 LINE",
"358 355 LINE SMOOTH"
);
}
);
width = 617;
}
);
unicode = 1092D;
},
{
glyphname = u1092E;
lastChange = "2017-01-26 17:39:16 +0000";
layers = (
{
layerId = UUID0;
paths = (
{
closed = 1;
nodes = (
"521 46 LINE",
"459 95 OFFCURVE",
"433 127 OFFCURVE",
"433 164 CURVE SMOOTH",
"433 202 OFFCURVE",
"452 247 OFFCURVE",
"452 296 CURVE SMOOTH",
"452 342 OFFCURVE",
"435 379 OFFCURVE",
"394 396 CURVE",
"440 438 OFFCURVE",
"463 488 OFFCURVE",
"463 547 CURVE SMOOTH",
"463 649 OFFCURVE",
"396 724 OFFCURVE",
"238 724 CURVE SMOOTH",
"142 724 OFFCURVE",
"66 690 OFFCURVE",
"15 650 CURVE",
"57 583 LINE",
"110 618 OFFCURVE",
"162 645 OFFCURVE",
"239 645 CURVE SMOOTH",
"319 645 OFFCURVE",
"369 605 OFFCURVE",
"369 536 CURVE SMOOTH",
"369 470 OFFCURVE",
"328 417 OFFCURVE",
"250 397 CURVE",
"263 321 LINE",
"280 325 OFFCURVE",
"296 329 OFFCURVE",
"311 329 CURVE SMOOTH",
"337 329 OFFCURVE",
"357 317 OFFCURVE",
"357 278 CURVE SMOOTH",
"357 231 OFFCURVE",
"338 207 OFFCURVE",
"338 157 CURVE SMOOTH",
"338 96 OFFCURVE",
"376 46 OFFCURVE",
"465 -20 CURVE"
);
}
);
width = 569;
}
);
unicode = 1092E;
},
{
glyphname = u1092F;
lastChange = "2017-01-26 17:39:16 +0000";
layers = (
{
layerId = UUID0;
paths = (
{
closed = 1;
nodes = (
"328 0 LINE",
"328 637 LINE",
"550 637 LINE",
"550 714 LINE",
"15 714 LINE",
"15 637 LINE",
"238 637 LINE",
"238 0 LINE"
);
}
);
width = 564;
}
);
unicode = 1092F;
},
{
glyphname = u10930;
lastChange = "2017-01-26 17:39:16 +0000";
layers = (
{
layerId = UUID0;
paths = (
{
closed = 1;
nodes = (
"449 0 LINE",
"449 714 LINE",
"359 714 LINE",
"359 431 LINE",
"87 724 LINE",
"29 668 LINE",
"359 313 LINE",
"359 0 LINE"
);
}
);
width = 546;
}
);
unicode = 10930;
},
{
glyphname = u10931;
lastChange = "2017-01-26 17:39:16 +0000";
layers = (
{
layerId = UUID0;
paths = (
{
closed = 1;
nodes = (
"436 -10 OFFCURVE",
"534 65 OFFCURVE",
"534 185 CURVE SMOOTH",
"534 282 OFFCURVE",
"462 335 OFFCURVE",
"374 378 CURVE",
"448 416 OFFCURVE",
"510 467 OFFCURVE",
"510 553 CURVE SMOOTH",
"510 664 OFFCURVE",
"416 724 OFFCURVE",
"291 724 CURVE SMOOTH",
"169 724 OFFCURVE",
"72 663 OFFCURVE",
"72 554 CURVE SMOOTH",
"72 466 OFFCURVE",
"128 413 OFFCURVE",
"198 373 CURVE",
"119 337 OFFCURVE",
"49 279 OFFCURVE",
"49 182 CURVE SMOOTH",
"49 61 OFFCURVE",
"140 -10 OFFCURVE",
"294 -10 CURVE SMOOTH"
);
},
{
closed = 1;
nodes = (
"189 69 OFFCURVE",
"142 112 OFFCURVE",
"142 181 CURVE SMOOTH",
"142 254 OFFCURVE",
"188 296 OFFCURVE",
"276 334 CURVE",
"299 326 LINE SMOOTH",
"309 322 OFFCURVE",
"352 306 OFFCURVE",
"384 282 CURVE SMOOTH",
"419 255 OFFCURVE",
"441 229 OFFCURVE",
"441 184 CURVE SMOOTH",
"441 111 OFFCURVE",
"389 69 OFFCURVE",
"292 69 CURVE SMOOTH"
);
},
{
closed = 1;
nodes = (
"222 444 OFFCURVE",
"165 479 OFFCURVE",
"165 547 CURVE SMOOTH",
"165 613 OFFCURVE",
"216 645 OFFCURVE",
"290 645 CURVE SMOOTH",
"367 645 OFFCURVE",
"417 613 OFFCURVE",
"417 547 CURVE SMOOTH",
"417 483 OFFCURVE",
"364 442 OFFCURVE",
"295 414 CURVE"
);
}
);
width = 583;
}
);
unicode = 10931;
},
{
glyphname = u10932;
lastChange = "2017-01-26 17:39:16 +0000";
layers = (
{
layerId = UUID0;
paths = (
{
closed = 1;
nodes = (
"351 0 LINE",
"351 325 LINE",
"573 325 LINE",
"573 401 LINE",
"351 401 LINE",
"351 714 LINE",
"261 714 LINE",
"261 401 LINE",
"39 401 LINE",
"39 325 LINE",
"261 325 LINE",
"261 0 LINE"
);
}
);
width = 612;
}
);
unicode = 10932;
},
{
glyphname = u10933;
lastChange = "2017-01-26 17:39:16 +0000";
layers = (
{
layerId = UUID0;
paths = (
{
closed = 1;
nodes = (
"351 0 LINE",
"351 325 LINE",
"573 325 LINE",
"573 401 LINE",
"351 401 LINE",
"351 637 LINE",
"573 637 LINE",
"573 714 LINE",
"39 714 LINE",
"39 637 LINE",
"261 637 LINE",
"261 401 LINE",
"39 401 LINE",
"39 325 LINE",
"261 325 LINE",
"261 0 LINE"
);
}
);
width = 612;
}
);
unicode = 10933;
},
{
glyphname = u10934;
lastChange = "2017-01-26 17:39:16 +0000";
layers = (
{
layerId = UUID0;
paths = (
{
closed = 1;
nodes = (
"573 0 LINE",
"573 77 LINE",
"351 77 LINE",
"351 325 LINE",
"573 325 LINE",
"573 401 LINE",
"351 401 LINE",
"351 637 LINE",
"573 637 LINE",
"573 714 LINE",
"39 714 LINE",
"39 637 LINE",
"261 637 LINE",
"261 401 LINE",
"39 401 LINE",
"39 325 LINE",
"261 325 LINE",
"261 77 LINE",
"39 77 LINE",
"39 0 LINE"
);
}
);
width = 612;
}
);
unicode = 10934;
},
{
glyphname = u10935;
lastChange = "2017-01-26 17:39:16 +0000";
layers = (
{
layerId = UUID0;
paths = (
{
closed = 1;
nodes = (
"110 0 LINE",
"219 434 LINE SMOOTH",
"235 496 OFFCURVE",
"247 553 OFFCURVE",
"253 604 CURVE",
"260 551 OFFCURVE",
"275 488 OFFCURVE",
"292 428 CURVE SMOOTH",
"416 0 LINE",
"512 0 LINE",
"642 432 LINE SMOOTH",
"661 495 OFFCURVE",
"673 558 OFFCURVE",
"681 604 CURVE",
"687 554 OFFCURVE",
"699 496 OFFCURVE",
"715 433 CURVE SMOOTH",
"824 0 LINE",
"919 0 LINE",
"729 714 LINE",
"636 714 LINE",
"500 249 LINE SMOOTH",
"483 191 OFFCURVE",
"466 126 OFFCURVE",
"463 108 CURVE",
"461 126 OFFCURVE",
"447 190 OFFCURVE",
"429 252 CURVE SMOOTH",
"297 714 LINE",
"204 714 LINE",
"146 500 OFFCURVE",
"71 214 OFFCURVE",
"15 0 CURVE"
);
}
);
width = 934;
}
);
unicode = 10935;
},
{
glyphname = u10936;
lastChange = "2017-01-26 17:39:16 +0000";
layers = (
{
layerId = UUID0;
paths = (
{
closed = 1;
nodes = (
"381 0 LINE",
"381 272 LINE",
"654 714 LINE",
"562 714 LINE",
"449 525 LINE SMOOTH",
"425 485 OFFCURVE",
"403 446 OFFCURVE",
"381 406 CURVE",
"381 714 LINE",
"292 714 LINE",
"292 408 LINE",
"272 443 OFFCURVE",
"252 479 OFFCURVE",
"231 514 CURVE SMOOTH",
"111 714 LINE",
"20 714 LINE",
"292 272 LINE",
"292 0 LINE"
);
}
);
width = 673;
}
);
unicode = 10936;
},
{
glyphname = u10937;
lastChange = "2017-01-26 17:39:16 +0000";
layers = (
{
layerId = UUID0;
paths = (
{
closed = 1;
nodes = (
"459 0 LINE",
"459 586 LINE",
"560 459 LINE",
"627 459 LINE",
"800 675 LINE",
"738 724 LINE",
"594 545 LINE",
"459 714 LINE",
"370 714 LINE",
"235 545 LINE",
"91 724 LINE",
"29 675 LINE",
"202 459 LINE",
"269 459 LINE",
"370 586 LINE",
"370 0 LINE"
);
}
);
width = 829;
}
);
unicode = 10937;
},
{
glyphname = u10938;
lastChange = "2017-01-26 17:39:16 +0000";
layers = (
{
layerId = UUID0;
paths = (
{
closed = 1;
nodes = (
"570 61 LINE",
"486 85 OFFCURVE",
"401 137 OFFCURVE",
"401 201 CURVE SMOOTH",
"401 326 OFFCURVE",
"589 332 OFFCURVE",
"589 520 CURVE SMOOTH",
"589 590 OFFCURVE",
"526 671 OFFCURVE",
"361 724 CURVE",
"326 653 LINE",
"418 624 OFFCURVE",
"495 572 OFFCURVE",
"495 516 CURVE SMOOTH",
"495 432 OFFCURVE",
"445 396 OFFCURVE",
"395 357 CURVE",
"352 387 OFFCURVE",
"291 407 OFFCURVE",
"232 407 CURVE SMOOTH",
"149 407 OFFCURVE",
"80 363 OFFCURVE",
"39 318 CURVE",
"86 261 LINE",
"120 299 OFFCURVE",
"167 328 OFFCURVE",
"233 328 CURVE SMOOTH",
"278 328 OFFCURVE",
"312 316 OFFCURVE",
"337 300 CURVE",
"318 274 OFFCURVE",
"306 242 OFFCURVE",
"306 197 CURVE SMOOTH",
"306 112 OFFCURVE",
"385 30 OFFCURVE",
"534 -10 CURVE"
);
}
);
width = 653;
}
);
unicode = 10938;
},
{
glyphname = u10939;
lastChange = "2017-01-26 17:39:16 +0000";
layers = (
{
layerId = UUID0;
paths = (
{
closed = 1;
nodes = (
"387 0 LINE",
"387 590 LINE",
"607 365 LINE",
"665 421 LINE",
"377 714 LINE",
"307 714 LINE",
"20 421 LINE",
"77 365 LINE",
"297 591 LINE",
"297 0 LINE"
);
}
);
width = 684;
}
);
unicode = 10939;
},
{
glyphname = u1093F;
lastChange = "2017-01-26 17:39:16 +0000";
layers = (
{
layerId = UUID0;
paths = (
{
closed = 1;
nodes = (
"422 124 LINE",
"422 580 LINE",
"333 580 LINE",
"49 403 LINE",
"49 301 LINE",
"333 124 LINE"
);
},
{
closed = 1;
nodes = (
"117 352 LINE",
"333 488 LINE",
"333 216 LINE"
);
}
);
width = 486;
}
);
unicode = 1093F;
},
